<?xml version="1.0" standalone="no"?>
<svg xmlns:xlink="http://www.w3.org/1999/xlink" id="wave" style="transform:rotate(0deg); transition: 0.3s" viewBox="0 0 1440 490" version="1.1" xmlns="http://www.w3.org/2000/svg"><defs><linearGradient id="sw-gradient-0" x1="0" x2="0" y1="1" y2="0"><stop stop-color="rgba(253.15, 176.704, 26.53, 1)" offset="0%"/><stop stop-color="rgba(255, 179, 11, 1)" offset="100%"/></linearGradient></defs><path style="transform:translate(0, 0px); opacity:1" fill="url(#sw-gradient-0)" d="M0,245L48,245C96,245,192,245,288,253.2C384,261,480,278,576,285.8C672,294,768,294,864,261.3C960,229,1056,163,1152,114.3C1248,65,1344,33,1440,65.3C1536,98,1632,196,1728,196C1824,196,1920,98,2016,89.8C2112,82,2208,163,2304,171.5C2400,180,2496,114,2592,130.7C2688,147,2784,245,2880,294C2976,343,3072,343,3168,318.5C3264,294,3360,245,3456,245C3552,245,3648,294,3744,302.2C3840,310,3936,278,4032,277.7C4128,278,4224,310,4320,318.5C4416,327,4512,310,4608,302.2C4704,294,4800,294,4896,318.5C4992,343,5088,392,5184,375.7C5280,359,5376,278,5472,228.7C5568,180,5664,163,5760,179.7C5856,196,5952,245,6048,285.8C6144,327,6240,359,6336,383.8C6432,408,6528,425,6624,416.5C6720,408,6816,376,6864,359.3L6912,343L6912,490L6864,490C6816,490,6720,490,6624,490C6528,490,6432,490,6336,490C6240,490,6144,490,6048,490C5952,490,5856,490,5760,490C5664,490,5568,490,5472,490C5376,490,5280,490,5184,490C5088,490,4992,490,4896,490C4800,490,4704,490,4608,490C4512,490,4416,490,4320,490C4224,490,4128,490,4032,490C3936,490,3840,490,3744,490C3648,490,3552,490,3456,490C3360,490,3264,490,3168,490C3072,490,2976,490,2880,490C2784,490,2688,490,2592,490C2496,490,2400,490,2304,490C2208,490,2112,490,2016,490C1920,490,1824,490,1728,490C1632,490,1536,490,1440,490C1344,490,1248,490,1152,490C1056,490,960,490,864,490C768,490,672,490,576,490C480,490,384,490,288,490C192,490,96,490,48,490L0,490Z"/></svg>